<svg width="324" height="60" viewBox="0 0 324 60" fill="none" xmlns="http://www.w3.org/2000/svg">
<path d="M5.852 44.22C5.17733 44.22 4.63467 44.0147 4.224 43.604C3.81333 43.164 3.608 42.6067 3.608 41.932V15.18C3.608 14.5053 3.79867 13.9773 4.18 13.596C4.59067 13.1853 5.148 12.98 5.852 12.98H21.604C23.012 12.98 23.716 13.596 23.716 14.828C23.716 16.06 23.012 16.676 21.604 16.676H8.096V26.4H20.724C22.132 26.4 22.836 27.016 22.836 28.248C22.836 29.48 22.132 30.096 20.724 30.096H8.096V41.932C8.096 42.636 7.89067 43.1933 7.48 43.604C7.09867 44.0147 6.556 44.22 5.852 44.22ZM36.1195 22C38.9649 22 41.0769 22.7187 42.4555 24.156C43.8635 25.5933 44.5675 27.7787 44.5675 30.712V42.108C44.5675 42.7827 44.3769 43.3107 43.9955 43.692C43.6142 44.044 43.0862 44.22 42.4115 44.22C41.7662 44.22 41.2529 44.0293 40.8715 43.648C40.4902 43.2667 40.2995 42.7533 40.2995 42.108V40.48C39.7422 41.712 38.9062 42.6653 37.7915 43.34C36.7062 43.9853 35.4302 44.308 33.9635 44.308C32.5555 44.308 31.2649 44.0293 30.0915 43.472C28.9475 42.8853 28.0382 42.0933 27.3635 41.096C26.6889 40.0987 26.3515 38.9693 26.3515 37.708C26.3222 36.124 26.7182 34.892 27.5395 34.012C28.3609 33.1027 29.6955 32.4573 31.5435 32.076C33.3915 31.6653 35.9582 31.46 39.2435 31.46H40.2555V30.184C40.2555 28.5413 39.9182 27.3533 39.2435 26.62C38.5689 25.8867 37.4835 25.52 35.9875 25.52C34.9609 25.52 33.9929 25.652 33.0835 25.916C32.1742 26.18 31.1769 26.5613 30.0915 27.06C29.2995 27.5 28.7422 27.72 28.4195 27.72C27.9795 27.72 27.6129 27.5587 27.3195 27.236C27.0555 26.9133 26.9235 26.5027 26.9235 26.004C26.9235 25.564 27.0409 25.1827 27.2755 24.86C27.5395 24.508 27.9502 24.1707 28.5075 23.848C29.5342 23.2907 30.7369 22.8507 32.1155 22.528C33.4942 22.176 34.8289 22 36.1195 22ZM34.7555 41.008C36.3689 41.008 37.6889 40.4653 38.7155 39.38C39.7422 38.2653 40.2555 36.8427 40.2555 35.112V33.968H39.4635C37.1755 33.968 35.4155 34.0707 34.1835 34.276C32.9515 34.4813 32.0715 34.8333 31.5435 35.332C31.0155 35.8013 30.7515 36.4907 30.7515 37.4C30.7515 38.456 31.1329 39.3213 31.8955 39.996C32.6582 40.6707 33.6115 41.008 34.7555 41.008ZM52.8904 44.22C52.2451 44.22 51.7024 44.044 51.2624 43.692C50.8517 43.34 50.6464 42.812 50.6464 42.108V14.916C50.6464 14.212 50.8517 13.684 51.2624 13.332C51.7024 12.9507 52.2451 12.76 52.8904 12.76C53.5357 12.76 54.0637 12.9507 54.4744 13.332C54.8851 13.684 55.0904 14.212 55.0904 14.916V42.108C55.0904 42.812 54.8851 43.34 54.4744 43.692C54.0637 44.044 53.5357 44.22 52.8904 44.22ZM78.1107 38.588C78.5213 38.588 78.8587 38.7493 79.1227 39.072C79.3867 39.3947 79.5187 39.8053 79.5187 40.304C79.5187 41.1547 78.9907 41.8733 77.9347 42.46C76.908 43.0467 75.7787 43.5013 74.5467 43.824C73.344 44.1467 72.1853 44.308 71.0707 44.308C67.668 44.308 64.984 43.3253 63.0187 41.36C61.0533 39.3653 60.0707 36.652 60.0707 33.22C60.0707 31.02 60.496 29.0693 61.3467 27.368C62.2267 25.6667 63.444 24.3467 64.9987 23.408C66.5827 22.4693 68.372 22 70.3667 22C73.2413 22 75.5147 22.924 77.1867 24.772C78.8587 26.62 79.6947 29.1133 79.6947 32.252C79.6947 33.4253 79.1667 34.012 78.1107 34.012H64.5147C64.808 38.5587 66.9933 40.832 71.0707 40.832C72.156 40.832 73.0947 40.6853 73.8867 40.392C74.6787 40.0987 75.5147 39.7173 76.3947 39.248C76.4827 39.1893 76.7173 39.072 77.0987 38.896C77.5093 38.6907 77.8467 38.588 78.1107 38.588ZM70.4547 25.256C68.7533 25.256 67.3893 25.7987 66.3627 26.884C65.336 27.9693 64.72 29.4947 64.5147 31.46H75.8667C75.7787 29.4653 75.2653 27.94 74.3267 26.884C73.4173 25.7987 72.1267 25.256 70.4547 25.256ZM107.721 22C109.569 22 111.212 22.4693 112.649 23.408C114.116 24.3467 115.245 25.6667 116.037 27.368C116.859 29.0693 117.269 31.0347 117.269 33.264C117.269 35.464 116.873 37.4 116.081 39.072C115.289 40.744 114.16 42.0347 112.693 42.944C111.256 43.8533 109.599 44.308 107.721 44.308C106.108 44.308 104.685 43.9707 103.453 43.296C102.221 42.592 101.283 41.5947 100.637 40.304V50.116C100.637 50.732 100.432 51.216 100.021 51.568C99.6399 51.9493 99.1266 52.14 98.4813 52.14C97.8066 52.14 97.2493 51.9493 96.8093 51.568C96.3986 51.1867 96.1933 50.6733 96.1933 50.028V24.244C96.1933 23.5987 96.3986 23.0853 96.8093 22.704C97.2199 22.2933 97.7626 22.088 98.4373 22.088C99.0826 22.088 99.6106 22.2933 100.021 22.704C100.432 23.0853 100.637 23.5987 100.637 24.244V26.048C101.283 24.7573 102.221 23.76 103.453 23.056C104.685 22.352 106.108 22 107.721 22ZM106.665 40.788C108.601 40.788 110.097 40.1427 111.153 38.852C112.209 37.532 112.737 35.6693 112.737 33.264C112.737 30.8293 112.195 28.9373 111.109 27.588C110.053 26.2387 108.572 25.564 106.665 25.564C104.729 25.564 103.233 26.224 102.177 27.544C101.151 28.864 100.637 30.7413 100.637 33.176C100.637 35.6107 101.151 37.488 102.177 38.808C103.233 40.128 104.729 40.788 106.665 40.788ZM131.517 44.308C129.405 44.308 127.543 43.8533 125.929 42.944C124.345 42.0347 123.113 40.744 122.233 39.072C121.383 37.3707 120.957 35.4053 120.957 33.176C120.957 30.9173 121.383 28.952 122.233 27.28C123.113 25.5787 124.345 24.2733 125.929 23.364C127.543 22.4547 129.405 22 131.517 22C133.629 22 135.477 22.4547 137.061 23.364C138.675 24.2733 139.907 25.5787 140.757 27.28C141.637 28.952 142.077 30.9173 142.077 33.176C142.077 35.4053 141.637 37.3707 140.757 39.072C139.907 40.744 138.675 42.0347 137.061 42.944C135.477 43.8533 133.629 44.308 131.517 44.308ZM131.517 40.788C133.483 40.788 134.979 40.1427 136.005 38.852C137.061 37.5613 137.589 35.6693 137.589 33.176C137.589 30.712 137.061 28.8347 136.005 27.544C134.949 26.224 133.453 25.564 131.517 25.564C129.581 25.564 128.085 26.224 127.029 27.544C125.973 28.8347 125.445 30.712 125.445 33.176C125.445 35.6693 125.959 37.5613 126.985 38.852C128.041 40.1427 129.552 40.788 131.517 40.788ZM158.289 22.088C159.697 22 160.401 22.6013 160.401 23.892C160.401 24.5373 160.24 25.0213 159.917 25.344C159.595 25.6667 159.037 25.8573 158.245 25.916L156.925 26.048C155.077 26.224 153.699 26.8693 152.789 27.984C151.909 29.0987 151.469 30.448 151.469 32.032V42.108C151.469 42.812 151.264 43.34 150.853 43.692C150.443 44.044 149.915 44.22 149.269 44.22C148.624 44.22 148.081 44.044 147.641 43.692C147.231 43.34 147.025 42.812 147.025 42.108V24.2C147.025 23.5253 147.231 23.012 147.641 22.66C148.081 22.2787 148.624 22.088 149.269 22.088C149.856 22.088 150.34 22.2787 150.721 22.66C151.132 23.012 151.337 23.5107 151.337 24.156V26.268C151.924 24.9773 152.775 23.9947 153.889 23.32C155.004 22.6453 156.265 22.2493 157.673 22.132L158.289 22.088ZM199.38 22C204.191 22 206.596 24.8893 206.596 30.668V42.108C206.596 42.7827 206.391 43.3107 205.98 43.692C205.569 44.044 205.027 44.22 204.352 44.22C203.707 44.22 203.179 44.044 202.768 43.692C202.357 43.3107 202.152 42.7827 202.152 42.108V30.712C202.152 28.9227 201.829 27.632 201.184 26.84C200.539 26.0187 199.527 25.608 198.148 25.608C196.535 25.608 195.259 26.1653 194.32 27.28C193.381 28.3653 192.912 29.8613 192.912 31.768V42.108C192.912 42.7827 192.707 43.3107 192.296 43.692C191.885 44.044 191.343 44.22 190.668 44.22C190.023 44.22 189.495 44.044 189.084 43.692C188.673 43.3107 188.468 42.7827 188.468 42.108V30.712C188.468 28.9227 188.145 27.632 187.5 26.84C186.855 26.0187 185.843 25.608 184.464 25.608C182.851 25.608 181.56 26.1653 180.592 27.28C179.653 28.3653 179.184 29.8613 179.184 31.768V42.108C179.184 42.7827 178.979 43.3107 178.568 43.692C178.157 44.044 177.629 44.22 176.984 44.22C176.339 44.22 175.796 44.044 175.356 43.692C174.945 43.3107 174.74 42.7827 174.74 42.108V24.2C174.74 23.5547 174.96 23.0413 175.4 22.66C175.84 22.2787 176.368 22.088 176.984 22.088C177.6 22.088 178.099 22.2787 178.48 22.66C178.891 23.012 179.096 23.5107 179.096 24.156V25.784C179.741 24.552 180.636 23.6133 181.78 22.968C182.924 22.3227 184.244 22 185.74 22C187.383 22 188.732 22.3373 189.788 23.012C190.873 23.6867 191.68 24.728 192.208 26.136C192.853 24.8747 193.807 23.8773 195.068 23.144C196.329 22.3813 197.767 22 199.38 22ZM214.926 44.22C214.28 44.22 213.738 44.044 213.298 43.692C212.887 43.34 212.682 42.812 212.682 42.108V24.244C212.682 23.54 212.887 23.012 213.298 22.66C213.738 22.2787 214.28 22.088 214.926 22.088C215.571 22.088 216.099 22.2787 216.51 22.66C216.92 23.012 217.126 23.54 217.126 24.244V42.108C217.126 42.812 216.92 43.34 216.51 43.692C216.099 44.044 215.571 44.22 214.926 44.22ZM214.926 17.776C214.075 17.776 213.4 17.5413 212.902 17.072C212.403 16.6027 212.154 15.9867 212.154 15.224C212.154 14.4613 212.403 13.86 212.902 13.42C213.4 12.9507 214.075 12.716 214.926 12.716C215.747 12.716 216.407 12.9507 216.906 13.42C217.434 13.86 217.698 14.4613 217.698 15.224C217.698 15.9867 217.448 16.6027 216.95 17.072C216.451 17.5413 215.776 17.776 214.926 17.776ZM247.978 22C252.788 22 255.194 24.8893 255.194 30.668V42.108C255.194 42.7827 254.988 43.3107 254.578 43.692C254.167 44.044 253.624 44.22 252.95 44.22C252.304 44.22 251.776 44.044 251.366 43.692C250.955 43.3107 250.75 42.7827 250.75 42.108V30.712C250.75 28.9227 250.427 27.632 249.782 26.84C249.136 26.0187 248.124 25.608 246.746 25.608C245.132 25.608 243.856 26.1653 242.918 27.28C241.979 28.3653 241.51 29.8613 241.51 31.768V42.108C241.51 42.7827 241.304 43.3107 240.894 43.692C240.483 44.044 239.94 44.22 239.266 44.22C238.62 44.22 238.092 44.044 237.682 43.692C237.271 43.3107 237.066 42.7827 237.066 42.108V30.712C237.066 28.9227 236.743 27.632 236.098 26.84C235.452 26.0187 234.44 25.608 233.062 25.608C231.448 25.608 230.158 26.1653 229.19 27.28C228.251 28.3653 227.782 29.8613 227.782 31.768V42.108C227.782 42.7827 227.576 43.3107 227.166 43.692C226.755 44.044 226.227 44.22 225.582 44.22C224.936 44.22 224.394 44.044 223.954 43.692C223.543 43.3107 223.338 42.7827 223.338 42.108V24.2C223.338 23.5547 223.558 23.0413 223.998 22.66C224.438 22.2787 224.966 22.088 225.582 22.088C226.198 22.088 226.696 22.2787 227.078 22.66C227.488 23.012 227.694 23.5107 227.694 24.156V25.784C228.339 24.552 229.234 23.6133 230.378 22.968C231.522 22.3227 232.842 22 234.338 22C235.98 22 237.33 22.3373 238.386 23.012C239.471 23.6867 240.278 24.728 240.806 26.136C241.451 24.8747 242.404 23.8773 243.666 23.144C244.927 22.3813 246.364 22 247.978 22Z" fill="#6C5CE7"/>
<g clip-path="url(#clip0)">
<path d="M307.129 50.5417C307.578 50.5417 308.028 50.37 308.371 50.0267C314.408 43.9907 314.408 34.1696 308.371 28.1336C307.685 27.4472 306.572 27.4472 305.886 28.1336C305.199 28.8199 305.199 29.933 305.886 30.6194C310.551 35.2847 310.551 42.8757 305.886 47.5409C305.199 48.2272 305.199 49.3403 305.886 50.0267C306.229 50.37 306.679 50.5417 307.129 50.5417V50.5417Z" fill="#6C5CE7"/>
<path d="M300.534 45.1194C300.984 45.1194 301.434 44.9477 301.777 44.6044C304.823 41.5583 304.823 36.6019 301.777 33.5558C301.091 32.8694 299.978 32.8694 299.291 33.5558C298.605 34.2421 298.605 35.3552 299.291 36.0416C300.967 37.7171 300.967 40.4433 299.291 42.1186C298.605 42.8049 298.605 43.918 299.291 44.6044C299.635 44.9478 300.085 45.1194 300.534 45.1194V45.1194Z" fill="#6C5CE7"/>
<path d="M313.74 55.8163C314.19 55.8163 314.64 55.6447 314.983 55.3014C323.928 46.3571 323.928 31.8034 314.983 22.8589C314.297 22.1726 313.184 22.1726 312.497 22.8589C311.811 23.5453 311.811 24.6583 312.497 25.3448C320.071 32.9185 320.071 45.2419 312.497 52.8155C311.811 53.5019 311.811 54.6149 312.497 55.3014C312.841 55.6447 313.291 55.8163 313.74 55.8163Z" fill="#6C5CE7"/>
<path d="M268.066 60C268.735 60 269.375 59.6153 269.669 58.9652L272.038 53.7175C272.406 52.9033 273.224 52.3862 274.114 52.4028C277.235 52.4573 281.068 52.515 283.024 52.4763C285.128 52.4347 286.355 51.5413 287.013 50.7991C287.925 49.7711 288.344 48.3663 288.191 46.8441C288.103 45.9619 288.342 45.6613 288.816 45.0629C289.175 44.6102 289.622 44.0469 289.838 43.2446C290.165 42.0267 289.687 40.6992 288.62 39.8627C288.573 39.8255 288.523 39.7904 288.472 39.7581L284.94 37.5364L290.218 35.5336C290.263 35.5165 290.308 35.4976 290.351 35.4769C291.612 34.876 292.31 33.4979 292.049 32.1259L291.366 28.5413C291.296 28.1759 291.377 27.8077 291.592 27.5045C291.808 27.2012 292.129 27.0045 292.498 26.9504L295.973 26.4395C296.934 26.298 297.759 25.69 298.178 24.8133C298.597 23.9368 298.553 22.9134 298.06 22.0762L291.436 10.8336C290.429 9.12353 290.031 7.10008 290.317 5.13592L290.772 2.01104C290.911 1.05035 290.246 0.158208 289.285 0.0185222C288.324 -0.121164 287.432 0.544336 287.293 1.50503L286.838 4.62991C286.438 7.38379 286.995 10.2207 288.407 12.6183L294.577 23.0913L291.986 23.4723C290.661 23.6673 289.504 24.3757 288.727 25.4669C287.951 26.5581 287.662 27.8836 287.912 29.1992L288.525 32.416L282.592 34.6668C281.546 35.0636 280.827 36.0017 280.716 37.1151C280.605 38.2285 281.125 39.2902 282.072 39.8859L286.312 42.5533C286.238 42.656 286.145 42.7738 286.062 42.8781C285.464 43.6319 284.463 44.8935 284.693 47.1939C284.724 47.5036 284.725 48.0806 284.383 48.4661C284.035 48.859 283.414 48.9522 282.954 48.9614C281.057 48.9988 277.266 48.9418 274.175 48.8877C271.877 48.8519 269.781 50.1754 268.835 52.2705L266.465 57.5182C266.065 58.403 266.458 59.4442 267.343 59.8438C267.578 59.9497 267.824 60 268.066 60V60ZM283.839 37.9538H283.838H283.839Z" fill="#6C5CE7"/>
</g>
<defs>
<clipPath id="clip0">
<rect width="60" height="60" fill="white" transform="matrix(-1 0 0 1 324 0)"/>
</clipPath>
</defs>
</svg>
